<svg width="820" height="820" viewBox="0 0 820 820" fill="none" xmlns="http://www.w3.org/2000/svg">
<path d="M161.16 225.059C162.897 226.471 162.897 226.471 163.766 228.534C163.578 233.624 162.009 236.279 158.5 239.772C158.067 240.225 157.635 240.678 157.189 241.145C154.785 243.646 152.288 246.029 149.759 248.404C139.619 258.525 133.679 272.408 133.364 286.734C133.32 287.766 133.277 288.798 133.232 289.862C132.65 308.706 137.875 325.684 150.737 339.721C167.621 357.346 189.955 368.466 211.022 380.197C217.999 384.096 224.909 388.1 231.79 392.166C233.211 393.002 233.211 393.002 234.66 393.855C283.702 422.982 312.852 463.498 336.315 514.812C336.686 515.624 336.686 515.624 337.066 516.452C337.738 517.925 338.406 519.399 339.075 520.874C339.906 522.912 339.906 522.912 340.965 523.875C343.844 523.861 346.119 523.711 348.472 521.922C349.986 520.382 351.397 518.785 352.8 517.143C353.925 515.887 355.053 514.634 356.183 513.383C356.795 512.703 357.407 512.023 358.038 511.322C361.485 507.575 365.066 503.963 368.663 500.36C369.892 499.127 371.115 497.888 372.338 496.649C373.089 495.896 373.84 495.144 374.614 494.368C375.286 493.692 375.959 493.016 376.651 492.32C378.316 490.866 378.316 490.866 380.053 490.866C380.053 490.293 380.053 489.72 380.053 489.129C381.115 488.087 381.115 488.087 382.714 486.794C386.369 483.686 389.758 480.369 393.137 476.968C393.693 476.409 394.248 475.851 394.82 475.276C396.559 473.525 398.296 471.772 400.032 470.019C413.368 456.546 413.368 456.546 418.498 452.204C421.365 449.747 424.062 447.104 426.796 444.502C431.415 440.14 436.097 435.954 441.071 431.995C443.343 430.157 445.547 428.262 447.748 426.34C458.177 417.248 469.317 409.086 480.814 401.395C481.422 400.987 482.03 400.579 482.657 400.158C534.103 365.779 593.71 339.182 656.635 338.646C657.888 338.633 657.888 338.633 659.165 338.62C661.858 338.598 664.55 338.587 667.242 338.581C668.624 338.578 668.624 338.578 670.034 338.574C681.903 338.571 693.625 338.889 705.407 340.373C707.05 340.577 707.05 340.577 708.726 340.786C729.201 343.664 729.201 343.664 737.058 349.276C738.582 352.324 738.015 355.632 737.058 358.831C732.576 362.091 727.635 362.36 722.227 362.514C642.409 364.932 567.46 404.676 506.872 454.383C505.813 455.238 504.753 456.091 503.693 456.945C493.41 465.234 483.316 473.708 473.6 482.658C471.771 484.321 469.924 485.951 468.057 487.571C455.373 498.662 443.543 510.672 431.682 522.626C428.643 525.688 425.602 528.747 422.558 531.805C421.542 532.832 421.542 532.832 420.504 533.881C416.916 537.485 413.263 540.935 409.375 544.217C407.209 546.168 405.385 548.361 403.499 550.579C400.218 554.299 396.67 557.768 393.156 561.266C391.836 562.582 390.521 563.902 389.206 565.222C388.346 566.082 387.486 566.941 386.626 567.799C385.864 568.56 385.102 569.321 384.317 570.105C382.421 571.955 380.451 573.697 378.445 575.427C374.78 578.608 371.356 581.989 367.947 585.44C367.318 586.073 366.688 586.705 366.04 587.357C364.05 589.358 362.062 591.362 360.075 593.367C357.454 596.012 354.829 598.653 352.203 601.293C351.321 602.187 351.321 602.187 350.42 603.098C347.026 606.51 343.539 609.756 339.887 612.893C338.494 614.098 337.139 615.331 335.798 616.593C330.167 621.887 324.348 626.734 318.144 631.339C316.586 632.499 315.039 633.673 313.492 634.848C306.147 640.385 298.623 645.357 290.585 649.829C289.85 650.238 289.115 650.647 288.358 651.068C271.593 660.304 254.576 667.403 235.862 671.545C234.948 671.759 234.948 671.759 234.016 671.976C213.869 676.532 190.627 675.812 170.715 670.677C169.626 670.404 169.626 670.404 168.515 670.127C148.196 664.922 129.409 655.624 113.386 642.011C112.646 641.386 111.906 640.762 111.143 640.118C105.176 634.928 99.9972 630.163 98.6192 622.032C98.5489 616.519 99.2208 612.41 102.962 608.134C107.573 605.129 113.353 605.769 118.598 606.397C122.11 607.681 125.048 609.542 128.152 611.608C158.739 630.875 192.767 645.575 229.503 638.14C245.894 634.301 261.839 624.098 271.777 610.465C283.393 591.599 286.734 571.105 282.118 549.369C272.851 510.418 248.457 478.483 214.589 457.378C204.603 451.373 194.255 446.019 183.907 440.671C173.947 435.514 164.073 430.191 154.211 424.849C153.531 424.481 152.85 424.114 152.149 423.735C141.575 417.995 131.894 411.364 123.09 403.15C121.436 401.612 119.745 400.167 118 398.735C114.645 395.874 111.858 392.617 109.043 389.234C108.507 388.622 107.972 388.009 107.421 387.378C94.6712 372.298 86.95 353.714 82.9839 334.509C82.6917 333.179 82.6917 333.179 82.3935 331.822C78.3347 311.138 83.356 290.12 94.673 272.543C106.667 254.805 123.75 242.125 141.779 231.031C142.73 230.446 142.73 230.446 143.7 229.849C154.737 223.207 154.737 223.207 161.16 225.059Z" fill="black"/>
<path d="M408.139 146.032C409.631 146.016 409.631 146.016 411.153 146C438.213 145.954 462.725 156.8 482.062 175.466C501.502 195.061 511.038 222.192 511 249.459C510.999 250.031 510.999 250.603 510.998 251.192C510.962 260.731 510.138 269.441 507.192 278.513C507.006 279.101 506.819 279.69 506.627 280.297C502.18 293.981 495.46 305.767 486.305 316.815C485.477 317.859 485.477 317.859 484.632 318.923C469.294 337.412 444.394 348.488 421.031 351.635C393.925 353.531 366.76 348.259 345.375 330.57C344.78 330.052 344.186 329.535 343.573 329.002C342.871 328.404 342.168 327.806 341.445 327.19C321.962 310.176 308.226 286.662 306.262 260.5C304.666 231.932 310.15 205.315 328.778 182.757C329.737 181.585 329.737 181.585 330.715 180.39C350.349 157.618 378.447 146.049 408.139 146.032Z" fill="#F59D24"/>
</svg>
